<svg width="181" height="64" viewBox="0 0 181 64" fill="none" xmlns="http://www.w3.org/2000/svg">
<g clip-path="url(#clip0_4903_171820)">
<g opacity="0.9">
<mask id="mask0_4903_171820" style="mask-type:alpha" maskUnits="userSpaceOnUse" x="0" y="-27" width="180" height="119">
<path fill-rule="evenodd" clip-rule="evenodd" d="M125.147 2.75001C118.284 9.55573 118.284 20.59 125.147 27.3957C132.01 34.2014 143.137 34.2014 150 27.3957L150.001 27.3947L150.002 27.3957C156.865 34.2014 167.992 34.2014 174.855 27.3957C181.718 20.59 181.718 9.55573 174.855 2.75001L174.854 2.74896C181.716 -4.05684 181.715 -15.0903 174.853 -21.8957C167.99 -28.7011 156.864 -28.7014 150.001 -21.8967C143.138 -28.7014 132.012 -28.7011 125.149 -21.8957C118.287 -15.0903 118.286 -4.05684 125.148 2.74896L125.147 2.75001Z" fill="white"/>
<path fill-rule="evenodd" clip-rule="evenodd" d="M65.1472 2.75001C58.2843 9.55573 58.2843 20.59 65.1472 27.3957C72.0101 34.2014 83.1371 34.2014 90 27.3957L90.0011 27.3947L90.0021 27.3957C96.865 34.2014 107.992 34.2014 114.855 27.3957C121.718 20.59 121.718 9.55573 114.855 2.75001L114.854 2.74896C121.716 -4.05684 121.715 -15.0903 114.853 -21.8957C107.99 -28.7011 96.8641 -28.7014 90.0011 -21.8967C83.1381 -28.7014 72.0118 -28.7011 65.1493 -21.8957C58.2867 -15.0903 58.2864 -4.05684 65.1482 2.74896L65.1472 2.75001Z" fill="white"/>
<path fill-rule="evenodd" clip-rule="evenodd" d="M5.14718 2.75001C-1.71573 9.55573 -1.71573 20.59 5.14719 27.3957C12.0101 34.2014 23.1371 34.2014 30 27.3957L30.0011 27.3947L30.0021 27.3957C36.865 34.2014 47.992 34.2014 54.8549 27.3957C61.7178 20.59 61.7178 9.55573 54.8549 2.75001L54.8539 2.74896C61.7157 -4.05684 61.7154 -15.0903 54.8528 -21.8957C47.9903 -28.7011 36.8641 -28.7014 30.0011 -21.8967C23.1381 -28.7014 12.0118 -28.7011 5.14928 -21.8957C-1.71329 -15.0903 -1.71364 -4.05684 5.14823 2.74896L5.14718 2.75001Z" fill="white"/>
<path fill-rule="evenodd" clip-rule="evenodd" d="M125.147 62.249C118.284 69.0548 118.284 80.089 125.147 86.8947C132.01 93.7005 143.137 93.7005 150 86.8947L150.001 86.8937L150.002 86.8947C156.865 93.7005 167.992 93.7005 174.855 86.8947C181.718 80.089 181.718 69.0548 174.855 62.249L174.854 62.248C181.716 55.4422 181.715 44.4087 174.853 37.6033C167.99 30.7979 156.864 30.7976 150.001 37.6023C143.138 30.7976 132.012 30.7979 125.149 37.6033C118.287 44.4087 118.286 55.4422 125.148 62.248L125.147 62.249Z" fill="white"/>
<path fill-rule="evenodd" clip-rule="evenodd" d="M65.1472 62.249C58.2843 69.0548 58.2843 80.089 65.1472 86.8947C72.0101 93.7005 83.1371 93.7005 90 86.8947L90.0011 86.8937L90.0021 86.8947C96.865 93.7005 107.992 93.7005 114.855 86.8947C121.718 80.089 121.718 69.0548 114.855 62.249L114.854 62.248C121.716 55.4422 121.715 44.4087 114.853 37.6033C107.99 30.7979 96.8641 30.7976 90.0011 37.6023C83.1381 30.7976 72.0118 30.7979 65.1493 37.6033C58.2867 44.4087 58.2864 55.4422 65.1482 62.248L65.1472 62.249Z" fill="white"/>
<path fill-rule="evenodd" clip-rule="evenodd" d="M5.14718 62.249C-1.71573 69.0548 -1.71573 80.089 5.14719 86.8947C12.0101 93.7005 23.1371 93.7005 30 86.8947L30.0011 86.8937L30.0021 86.8947C36.865 93.7005 47.992 93.7005 54.8549 86.8947C61.7178 80.089 61.7178 69.0548 54.8549 62.249L54.8539 62.248C61.7157 55.4422 61.7154 44.4087 54.8528 37.6033C47.9903 30.7979 36.8641 30.7976 30.0011 37.6023C23.1381 30.7976 12.0118 30.7979 5.14928 37.6033C-1.71329 44.4087 -1.71364 55.4422 5.14823 62.248L5.14718 62.249Z" fill="white"/>
</mask>
<g mask="url(#mask0_4903_171820)">
<rect y="-27" width="180" height="119" fill="url(#paint0_linear_4903_171820)"/>
</g>
</g>
</g>
<defs>
<linearGradient id="paint0_linear_4903_171820" x1="90" y1="-27" x2="90" y2="92" gradientUnits="userSpaceOnUse">
<stop stop-color="var(--background-tertiary)" stop-opacity="0"/>
<stop offset="1" stop-color="var(--point-whiteGreen)"/>
</linearGradient>
<clipPath id="clip0_4903_171820">
<rect width="181" height="64" fill="white"/>
</clipPath>
</defs>
</svg>
