<svg viewBox="0 0 32 32" fill="none" xmlns="http://www.w3.org/2000/svg">
<circle cx="16" cy="16" r="16" fill="#334155"/>
<circle cx="16" cy="16" r="15.5" stroke="#F8FAFC" stroke-opacity="0.1"/>
<path d="M7.1508 19.1687C8.06385 24.0642 12.7726 27.2926 17.6682 26.3796C22.5637 25.4665 25.7921 20.7577 24.8791 15.8622C23.966 10.9667 19.2572 7.73823 14.3617 8.65128C9.46617 9.56434 6.23774 14.2731 7.1508 19.1687Z" fill="#64748B"/>
<circle cx="2.25425" cy="2.25425" r="2.25425" transform="matrix(-0.983048 0.183347 0.183347 0.983048 8.9729 15.9326)" fill="#64748B"/>
<ellipse cx="2.25425" cy="2.25425" rx="2.25425" ry="2.25425" transform="matrix(-0.983048 0.183347 0.183347 0.983048 26.7383 15.9326)" fill="#64748B"/>
<path fill-rule="evenodd" clip-rule="evenodd" d="M6.97963 15.2481C8.32595 16.1748 10.0266 16.5601 11.7307 16.1775C13.4594 15.7893 14.8469 14.6883 15.6634 13.2448C16.9675 15.543 19.628 16.8276 22.2971 16.2283C23.257 16.0127 24.1116 15.5774 24.8218 14.9858C24.7951 14.8317 24.7645 14.6775 24.7299 14.5232C23.6189 9.57595 18.7794 6.44993 13.9205 7.54101C10.1334 8.39139 7.45231 11.5525 6.97963 15.2481Z" fill="#1E293B"/>
<path fill-rule="evenodd" clip-rule="evenodd" d="M22.4976 10.2055L9.35472 10.0811C9.66633 7.5394 12.5176 5.56859 15.9691 5.60125C19.4207 5.63391 22.2342 7.65833 22.4976 10.2055Z" fill="#475569"/>
<rect x="7.16138" y="10.0615" width="17.525" height="2.19062" rx="0.730207" transform="rotate(0.542194 7.16138 10.0615)" fill="#475569"/>
<path d="M13.7617 7.20517C13.7732 5.99538 14.7632 5.02393 15.973 5.03538C17.1828 5.04683 18.1542 6.03684 18.1428 7.24663L18.1151 10.1673L13.7341 10.1259L13.7617 7.20517Z" fill="#334155"/>
</svg>
