<svg width="current" height="current" viewBox="0 0 26 24" fill="none" xmlns="http://www.w3.org/2000/svg">
<path d="M9.50146 11.1897H10.999L10.2502 9.06152L9.50146 11.1897Z" fill="#331D1E"/>
<path d="M13 0C5.82 0 0 4.59018 0 10.2532C0 13.9143 2.43375 17.1304 6.09375 18.9409C5.895 19.6274 4.81375 23.3598 4.77125 23.6536C4.77125 23.6536 4.745 23.8737 4.8875 23.9575C4.93518 23.9815 4.98726 23.9956 5.04057 23.9988C5.09387 24.0021 5.14727 23.9944 5.1975 23.9762C5.6075 23.9187 9.9475 20.874 10.6975 20.3501C11.4604 20.4561 12.2298 20.5083 13 20.5064C20.18 20.5064 26 15.9162 26 10.2532C26 4.59018 20.18 0 13 0ZM6.56625 8.66146C6.55 10.1119 6.57875 11.6374 6.555 13.0653C6.5475 13.5217 6.285 13.658 5.93 13.7881C5.88989 13.8022 5.84669 13.8053 5.805 13.7968C5.39875 13.7168 5.075 13.5717 5.065 13.0666C5.03625 11.6399 5.07375 10.1119 5.05375 8.66146C4.71 8.6477 4.22 8.67521 3.90125 8.66146C3.45875 8.6327 3.15125 8.35136 3.17 7.93248C3.18875 7.5136 3.4125 7.21225 3.90875 7.20475C5.08125 7.18725 6.53375 7.18725 7.70625 7.20475C8.20625 7.21225 8.42875 7.51485 8.44375 7.93248C8.45875 8.35011 8.15625 8.6327 7.715 8.66146C7.4 8.67521 6.91125 8.6477 6.56625 8.66146ZM12.8663 13.7193C12.7163 13.7875 12.5535 13.8229 12.3888 13.8231C12.0763 13.8231 11.8375 13.698 11.7638 13.4917L11.3888 12.5189H9.10625L8.73125 13.4917C8.65875 13.6955 8.42 13.8231 8.10625 13.8231C7.94189 13.8231 7.77946 13.7877 7.63 13.7193C7.4225 13.6243 7.22375 13.3617 7.45125 12.654L9.25 7.92998C9.32543 7.72189 9.46054 7.54068 9.63841 7.40902C9.81628 7.27735 10.029 7.20108 10.25 7.18975C10.4708 7.2023 10.6831 7.27918 10.8608 7.41093C11.0385 7.54268 11.1738 7.72354 11.25 7.93123L13.0425 12.6527C13.2712 13.3617 13.0725 13.6293 12.8663 13.7193ZM16.6562 13.7193H14.25C14.0636 13.723 13.8834 13.6527 13.7487 13.5238C13.614 13.3949 13.5358 13.218 13.5312 13.0316V7.93998C13.5392 7.74222 13.6234 7.55521 13.7661 7.41811C13.9088 7.28101 14.099 7.20444 14.2969 7.20444C14.4947 7.20444 14.6849 7.28101 14.8276 7.41811C14.9704 7.55521 15.0545 7.74222 15.0625 7.93998V12.3476H16.6562C16.75 12.3419 16.844 12.3555 16.9323 12.3875C17.0206 12.4195 17.1015 12.4693 17.1699 12.5337C17.2383 12.5981 17.2928 12.6758 17.33 12.7621C17.3673 12.8484 17.3865 12.9414 17.3865 13.0353C17.3865 13.1293 17.3673 13.2223 17.33 13.3085C17.2928 13.3948 17.2383 13.4725 17.1699 13.5369C17.1015 13.6014 17.0206 13.6511 16.9323 13.6831C16.844 13.7151 16.75 13.7287 16.6562 13.723V13.7193ZM22.5312 13.1541C22.5117 13.3021 22.4485 13.4409 22.3497 13.5528C22.2509 13.6646 22.121 13.7445 21.9766 13.7821C21.8321 13.8197 21.6798 13.8133 21.539 13.7638C21.3982 13.7143 21.2754 13.6239 21.1863 13.5042L19.4275 11.1747L19.1675 11.4348V13.0716C19.1675 13.2706 19.0885 13.4614 18.9478 13.6021C18.8072 13.7428 18.6164 13.8218 18.4175 13.8218C18.2186 13.8218 18.0278 13.7428 17.8872 13.6021C17.7465 13.4614 17.6675 13.2706 17.6675 13.0716V7.94498C17.6675 7.74601 17.7465 7.55518 17.8872 7.41449C18.0278 7.27379 18.2186 7.19475 18.4175 7.19475C18.6164 7.19475 18.8072 7.27379 18.9478 7.41449C19.0885 7.55518 19.1675 7.74601 19.1675 7.94498V9.55299L21.26 7.45983C21.3148 7.40565 21.3798 7.36293 21.4513 7.33416C21.5227 7.30539 21.5992 7.29115 21.6763 7.29228C21.8635 7.2972 22.0424 7.37114 22.1785 7.49992C22.3146 7.62869 22.3984 7.80322 22.4137 7.99C22.4205 8.07334 22.4094 8.15717 22.3811 8.23587C22.3529 8.31458 22.3082 8.38635 22.25 8.44639L20.5375 10.1557L22.3838 12.6027C22.5033 12.7614 22.555 12.9611 22.5275 13.1579L22.5312 13.1541Z" fill="#331D1E"/>
</svg>
