<svg width="24" height="24" viewBox="0 0 24 24" fill="none" xmlns="http://www.w3.org/2000/svg">
<path fill-rule="evenodd" clip-rule="evenodd" d="M14.8536 2.48251C13.3295 1.17119 11.0757 1.17119 9.55155 2.48251C8.89321 3.04894 8.07076 3.38961 7.20471 3.45461C5.19976 3.60508 3.60605 5.19878 3.45558 7.20374C3.39059 8.06978 3.04992 8.89224 2.48349 9.55058C1.17217 11.0747 1.17217 13.3285 2.48349 14.8527C3.04992 15.511 3.39059 16.3334 3.45558 17.1995C3.60605 19.2044 5.19976 20.7982 7.20471 20.9486C8.07076 21.0136 8.89321 21.3543 9.55155 21.9207C11.0757 23.232 13.3295 23.232 14.8536 21.9207C15.512 21.3543 16.3344 21.0136 17.2005 20.9486C19.2054 20.7982 20.7991 19.2044 20.9496 17.1995C21.0146 16.3334 21.3553 15.511 21.9217 14.8527C23.233 13.3285 23.233 11.0747 21.9217 9.55058C21.3553 8.89224 21.0146 8.06978 20.9496 7.20374C20.7991 5.19878 19.2054 3.60508 17.2005 3.45461C16.3344 3.38961 15.512 3.04894 14.8536 2.48251ZM17.5388 9.95421C17.9545 9.49239 17.917 8.78106 17.4552 8.36542C16.9934 7.94978 16.2821 7.98721 15.8664 8.44904L11.1909 13.6441L8.42283 11.3374C7.94551 10.9396 7.23613 11.0041 6.83837 11.4814C6.44061 11.9587 6.5051 12.6681 6.98241 13.0659L10.3606 15.881C10.9489 16.3713 11.8197 16.3088 12.332 15.7396L17.5388 9.95421Z" fill="url(#paint0_linear_4605_74990)"/>
<defs>
<linearGradient id="paint0_linear_4605_74990" x1="1.5" y1="12.2016" x2="22.9052" y2="12.2016" gradientUnits="userSpaceOnUse">
<stop stop-color="#10B981"/>
<stop offset="1" stop-color="#A3E635"/>
</linearGradient>
</defs>
</svg>
