<svg width="16" height="16" viewBox="0 0 16 16" fill="none" xmlns="http://www.w3.org/2000/svg">
<rect x="4" y="3" width="8" height="7" rx="2.5" fill="white"/>
<path fill-rule="evenodd" clip-rule="evenodd" d="M11.0912 5.7815L7.35789 9.51483L4.90923 7.06616C4.80464 6.95206 4.74815 6.80199 4.75151 6.64724C4.75488 6.49249 4.81786 6.34502 4.9273 6.23557C5.03675 6.12613 5.18422 6.06315 5.33897 6.05978C5.49371 6.05642 5.64379 6.11291 5.75789 6.2175L7.35789 7.8175L10.2426 4.93283C10.2983 4.87711 10.3644 4.8329 10.4372 4.80274C10.5101 4.77259 10.5881 4.75707 10.6669 4.75707C10.7457 4.75707 10.8237 4.77259 10.8965 4.80274C10.9693 4.8329 11.0355 4.87711 11.0912 4.93283C11.147 4.98855 11.1912 5.05471 11.2213 5.12752C11.2515 5.20032 11.267 5.27836 11.267 5.35716C11.267 5.43597 11.2515 5.514 11.2213 5.58681C11.1912 5.65962 11.147 5.72577 11.0912 5.7815ZM14.0979 7.04616C14.1604 6.98365 14.1955 6.89888 14.1955 6.8105C14.1955 6.72211 14.1604 6.63734 14.0979 6.57483L13.1312 5.60816C13.0898 5.56684 13.06 5.51528 13.0449 5.45874C13.0298 5.40219 13.0299 5.34265 13.0452 5.28616L13.3986 3.96616C13.4214 3.88076 13.4093 3.78981 13.365 3.7133C13.3208 3.63678 13.248 3.58098 13.1626 3.55816L11.8426 3.20483C11.7859 3.18965 11.7342 3.15977 11.6928 3.11821C11.6513 3.07666 11.6216 3.0249 11.6066 2.96816L11.2532 1.64816C11.2303 1.56272 11.1743 1.48988 11.0977 1.44563C11.0211 1.40139 10.93 1.38935 10.8446 1.41216L9.52389 1.76616C9.46744 1.78128 9.408 1.78122 9.35158 1.766C9.29516 1.75079 9.24376 1.72094 9.20256 1.6795L8.23589 0.71283C8.17338 0.65034 8.08861 0.615234 8.00023 0.615234C7.91184 0.615234 7.82707 0.65034 7.76456 0.71283L6.79789 1.68016C6.75652 1.72155 6.705 1.75135 6.64848 1.76656C6.59197 1.78177 6.53245 1.78186 6.47589 1.76683L5.15589 1.41216C5.11356 1.40078 5.0694 1.39785 5.02594 1.40355C4.98248 1.40926 4.94057 1.42347 4.90261 1.4454C4.86465 1.46732 4.83138 1.49651 4.80472 1.5313C4.77806 1.5661 4.75852 1.60581 4.74723 1.64816L4.39323 2.96816C4.37816 3.02469 4.34848 3.07626 4.30717 3.11769C4.26586 3.15911 4.21438 3.18894 4.15789 3.20416L2.83723 3.55816C2.75196 3.58113 2.67928 3.63699 2.63516 3.71348C2.59104 3.78998 2.57907 3.88085 2.60189 3.96616L2.95523 5.28616C2.97055 5.34265 2.97066 5.40219 2.95556 5.45874C2.94046 5.51528 2.91067 5.56684 2.86923 5.60816L1.90256 6.57483C1.87154 6.60574 1.84692 6.64246 1.83013 6.68291C1.81333 6.72335 1.80469 6.76671 1.80469 6.8105C1.80469 6.85429 1.81333 6.89765 1.83013 6.93809C1.84692 6.97853 1.87154 7.01526 1.90256 7.04616L2.86923 8.01283C2.91067 8.0543 2.94045 8.10597 2.95555 8.16262C2.97064 8.21927 2.97053 8.2789 2.95523 8.3355L2.60189 9.6555C2.57907 9.74081 2.59104 9.83168 2.63516 9.90818C2.67928 9.98467 2.75196 10.0405 2.83723 10.0635L4.15789 10.4175C4.21438 10.4327 4.26586 10.4625 4.30717 10.504C4.34848 10.5454 4.37816 10.597 4.39323 10.6535L4.74656 11.9735C4.75825 12.0163 4.77837 12.0563 4.80573 12.0912C4.83309 12.1261 4.86714 12.1552 4.90589 12.1768L3.66523 15.5215H7.12056L7.99989 13.1495L8.88056 15.5215H12.3352L11.0946 12.1768C11.1333 12.1553 11.1673 12.1262 11.1946 12.0913C11.2218 12.0564 11.2418 12.0163 11.2532 11.9735L11.6066 10.6535C11.6216 10.5969 11.6514 10.5452 11.6928 10.5038C11.7343 10.4623 11.7859 10.4326 11.8426 10.4175L13.1626 10.0642C13.2049 10.0529 13.2446 10.0333 13.2794 10.0067C13.3142 9.98001 13.3434 9.94674 13.3653 9.90878C13.3872 9.87082 13.4015 9.82891 13.4072 9.78545C13.4129 9.74199 13.4099 9.69783 13.3986 9.6555L13.0452 8.3355C13.0299 8.27901 13.0298 8.21947 13.0449 8.16292C13.06 8.10638 13.0898 8.05482 13.1312 8.0135L14.0979 7.04683V7.04616Z" fill="url(#paint0_linear_3323_30140)"/>
<defs>
<linearGradient id="paint0_linear_3323_30140" x1="1.80469" y1="8.06837" x2="14.1955" y2="8.06837" gradientUnits="userSpaceOnUse">
<stop stop-color="#10B981"/>
<stop offset="1" stop-color="#A3E635"/>
</linearGradient>
</defs>
</svg>
