<svg width="64" height="64" viewBox="0 0 66 66" fill="none" xmlns="http://www.w3.org/2000/svg">
<circle cx="32" cy="32" r="32" fill="var(--background-tertiary)"/>
<circle cx="32" cy="32" r="31" stroke="var(--text-primary)" stroke-opacity="0.1" stroke-width="2"/>
<path d="M15.6492 38.2333C17.3336 47.264 26.0198 53.2194 35.0506 51.5351C44.0813 49.8508 50.0368 41.1646 48.3524 32.1338C46.6681 23.1031 37.9819 17.1476 28.9511 18.8319C19.9204 20.5162 13.9649 29.2025 15.6492 38.2333Z" fill="var(--text-disabled)"/>
<circle cx="4.15839" cy="4.15839" r="4.15839" transform="matrix(-0.983048 0.183347 0.183347 0.983048 19.0078 32.2695)" fill="var(--text-disabled)"/>
<ellipse cx="4.15839" cy="4.15839" rx="4.15839" ry="4.15839" transform="matrix(-0.983048 0.183347 0.183347 0.983048 51.7832 32.2695)" fill="var(--text-disabled)"/>
<path fill-rule="evenodd" clip-rule="evenodd" d="M15.3398 31.0203C17.823 32.7288 20.9592 33.439 24.1019 32.7333C27.2952 32.0162 29.8574 29.9805 31.3628 27.3122C33.7685 31.5515 38.6762 33.9213 43.5999 32.8157C45.369 32.4184 46.9445 31.6164 48.2538 30.5263C48.2047 30.2427 48.1484 29.9587 48.0846 29.6747C46.0353 20.5486 37.1079 14.782 28.1446 16.7947C21.1558 18.3641 16.2087 24.1995 15.3398 31.0203Z" fill="var(--background-secondary)"/>
<path fill-rule="evenodd" clip-rule="evenodd" d="M43.954 21.7026L19.7108 21.4732C20.2894 16.7874 25.5473 13.1551 31.9116 13.2153C38.276 13.2755 43.4641 17.0067 43.954 21.7026Z" fill="var(--point-grayGreen)"/>
<rect x="15.6689" y="21.4375" width="32.3282" height="4.04102" rx="1.32284" transform="rotate(0.542194 15.6689 21.4375)" fill="var(--point-grayGreen)"/>
<path d="M27.8436 16.1668C27.8647 13.9351 29.691 12.1431 31.9227 12.1642C34.1544 12.1853 35.9464 14.0116 35.9253 16.2433L35.8743 21.6311L27.7926 21.5546L27.8436 16.1668Z" fill="var(--background-tertiary)"/>
<circle cx="55" cy="55" r="10" fill="var(--background-tertiary)" stroke="var(--text-primary)" stroke-opacity="0.1" stroke-width="2"/>
<path d="M55.0118 51.1895C55.1164 50.964 55.3836 50.8668 55.6086 50.9723L57.5454 51.8803C57.7705 51.9858 57.8681 52.2541 57.7635 52.4795L55.0823 58.2603C55.0314 58.3701 54.9385 58.4546 54.8245 58.4947L53.4156 58.9904C53.1852 59.0714 52.932 58.9527 52.8456 58.7231L52.3177 57.3195C52.275 57.2059 52.2796 57.0801 52.3306 56.9703L55.0118 51.1895Z" fill="var(--text-default)"/>
<path d="M53.126 51.3809L58.4896 53.8973" stroke="var(--background-tertiary)" stroke-width="0.5625"/>
</svg>
