<svg width="16" height="16" viewBox="0 0 16 16" fill="none" xmlns="http://www.w3.org/2000/svg">
<g clip-path="url(#clip0_126_17954)">
<path fill-rule="evenodd" clip-rule="evenodd" d="M9.66462 2.44821C8.77555 1.68328 7.46081 1.68328 6.57174 2.44821C6.18771 2.77863 5.70794 2.97735 5.20275 3.01527C4.03319 3.10304 3.10353 4.0327 3.01576 5.20226C2.97784 5.70745 2.77912 6.18722 2.4487 6.57125C1.68377 7.46032 1.68377 8.77506 2.4487 9.66413C2.77912 10.0482 2.97784 10.5279 3.01576 11.0331C3.10353 12.2027 4.03319 13.1323 5.20275 13.2201C5.70794 13.258 6.18771 13.4568 6.57174 13.7872C7.46081 14.5521 8.77555 14.5521 9.66462 13.7872C10.0486 13.4568 10.5284 13.258 11.0336 13.2201C12.2032 13.1323 13.1328 12.2027 13.2206 11.0331C13.2585 10.5279 13.4572 10.0482 13.7877 9.66413C14.5526 8.77506 14.5526 7.46032 13.7877 6.57125C13.4572 6.18722 13.2585 5.70745 13.2206 5.20226C13.1328 4.0327 12.2032 3.10304 11.0336 3.01527C10.5284 2.97735 10.0486 2.77863 9.66462 2.44821ZM11.231 6.8067C11.4734 6.53731 11.4516 6.12237 11.1822 5.87991C10.9128 5.63745 10.4979 5.65929 10.2554 5.92869L7.52801 8.95913L5.91332 7.61355C5.63488 7.38152 5.22108 7.41914 4.98905 7.69757C4.75702 7.97601 4.79464 8.38981 5.07307 8.62184L7.04366 10.264C7.38688 10.55 7.8948 10.5136 8.19368 10.1815L11.231 6.8067Z" fill="#10B981"/>
</g>
<defs>
<clipPath id="clip0_126_17954">
<rect width="14" height="14" fill="white" transform="translate(1 1)"/>
</clipPath>
</defs>
</svg>
