<svg width="current" height="current" viewBox="0 0 28 28" fill="none" xmlns="http://www.w3.org/2000/svg">
<path d="M7.05845 19.999L5.2938 21.7637C4.90165 20.9794 4.47029 19.0579 5.88202 17.6462C7.29374 16.2345 8.82311 16.6658 9.41132 17.058L13.5289 12.9404L15.8817 15.2933L11.7642 19.4108C11.9603 19.803 12.1171 20.9402 11.176 22.3519C10.2348 23.7636 8.03882 23.7244 7.05845 23.5284L8.82311 21.7637V19.999H7.05845Z" fill="#CAD5E1"/>
<path d="M22.2033 8.33445L23.9679 6.56979C24.3601 7.35408 24.7914 9.2756 23.3797 10.6873C21.968 12.099 20.4386 11.6677 19.8504 11.2755L15.7329 15.3931L13.38 13.0402L17.4975 8.92267C17.3014 8.53052 17.1446 7.3933 18.0857 5.98158C19.0269 4.56985 21.2229 4.60907 22.2033 4.80514L20.4386 6.56979V8.33445H22.2033Z" fill="#CAD5E1"/>
<rect x="8.8457" y="10.4062" width="3.75452" height="18.9339" rx="1.17644" transform="rotate(-45 8.8457 10.4062)" fill="#FF9950"/>
<rect x="3.38672" y="10.9326" width="2.35287" height="5.53579" rx="1.17644" transform="rotate(-45 3.38672 10.9326)" fill="#575D68"/>
<rect x="4.70703" y="11.0757" width="3.4218" height="3.45384" transform="rotate(-45 4.70703 11.0757)" fill="#575D68"/>
<rect x="5.88281" y="8.72217" width="5.44399" height="5.53579" rx="1.17644" transform="rotate(-45 5.88281 8.72217)" fill="#575D68"/>
<path d="M9.41114 5.17669L7.64648 6.94132L8.82292 10L11.764 7.05894C12.8673 5.95563 11.9012 6.92181 14.2028 7.0462C14.402 7.05696 14.5087 6.82568 14.3761 6.67667C11.6461 3.60937 10.1657 4.6108 9.41114 5.17669Z" fill="#575D68"/>
</svg>
